<svg width="18" height="19" viewBox="0 0 18 19" fill="none" xmlns="http://www.w3.org/2000/svg">
<path d="M8.13606 1.21065L7.52212 0.421295L7.52212 0.421296L8.13606 1.21065ZM9.36394 1.21065L9.97788 0.421296L9.97788 0.421295L9.36394 1.21065ZM1.38606 6.46065L0.772119 5.6713L0.772118 5.6713L1.38606 6.46065ZM16.1139 6.46065L16.7279 5.6713L16.7279 5.6713L16.1139 6.46065ZM10 16H11C11 15.4477 10.5523 15 10 15V16ZM12 16V15C11.4477 15 11 15.4477 11 16H12ZM14.5 7.73908H15.5C15.5 7.43049 15.3575 7.13919 15.1139 6.94973L14.5 7.73908ZM8.75 3.26686L9.36394 2.47751C9.00283 2.19665 8.49717 2.19665 8.13606 2.47751L8.75 3.26686ZM3 7.73908L2.38606 6.94973C2.14247 7.13919 2 7.43049 2 7.73908H3ZM5.5 16H6.5C6.5 15.4477 6.05228 15 5.5 15V16ZM7.5 16V15C6.94772 15 6.5 15.4477 6.5 16H7.5ZM8.75 2H8.75L9.97788 0.421295C9.25566 -0.140432 8.24434 -0.140432 7.52212 0.421295L8.75 2ZM2 7.25L8.75 2L7.52212 0.421296L0.772119 5.6713L2 7.25ZM2 7.25L2 7.25L0.772118 5.6713C0.284946 6.05021 0 6.63282 0 7.25H2ZM2 15.5V7.25H0V15.5H2ZM3.5 17C2.67157 17 2 16.3284 2 15.5H0C0 17.433 1.567 19 3.5 19V17ZM6.5 17H3.5V19H6.5V17ZM11 17H6.5V19H11V17ZM14 17H11V19H14V17ZM15.5 15.5C15.5 16.3284 14.8284 17 14 17V19C15.933 19 17.5 17.433 17.5 15.5H15.5ZM15.5 7.25V15.5H17.5V7.25H15.5ZM15.5 7.25L15.5 7.25H17.5C17.5 6.63282 17.2151 6.05021 16.7279 5.6713L15.5 7.25ZM8.75 2L15.5 7.25L16.7279 5.6713L9.97788 0.421296L8.75 2ZM11 17V16H9V17H11ZM11 17H9C9 18.1046 9.89543 19 11 19V17ZM11 17V19C12.1046 19 13 18.1046 13 17H11ZM11 16V17H13V16H11ZM12 17H14V15H12V17ZM14 17C14.8284 17 15.5 16.3284 15.5 15.5H13.5C13.5 15.2239 13.7239 15 14 15V17ZM15.5 15.5V7.73908H13.5V15.5H15.5ZM15.1139 6.94973L9.36394 2.47751L8.13606 4.05621L13.8861 8.52844L15.1139 6.94973ZM8.13606 2.47751L2.38606 6.94973L3.61394 8.52844L9.36394 4.05621L8.13606 2.47751ZM2 7.73908V15.5H4V7.73908H2ZM2 15.5C2 16.3284 2.67157 17 3.5 17V15C3.77614 15 4 15.2239 4 15.5H2ZM3.5 17H5.5V15H3.5V17ZM6.5 17V16H4.5V17H6.5ZM6.5 17H4.5C4.5 18.1046 5.39543 19 6.5 19V17ZM6.5 17V19C7.60457 19 8.5 18.1046 8.5 17H6.5ZM6.5 16V17H8.5V16H6.5ZM7.5 17H10V15H7.5V17Z" fill="#725DFF"/>
</svg>
