<svg fill="none" height="38" viewBox="0 0 92 38" width="92" xmlns="http://www.w3.org/2000/svg" xmlns:xlink="http://www.w3.org/1999/xlink"><mask id="a" height="38" maskUnits="userSpaceOnUse" width="32" x="2" y="0"><path clip-rule="evenodd" d="m2.33645 9.00379c1.08065-6.04345 6.92071-10.00776 12.93665-8.780898 5.9038 1.204058 9.6205 7.109978 8.4881 13.027808l-.4223 2.2069c-.4423 2.3093 1.0719 4.5398 3.3809 4.9817 4.7192.9029 8.0122 5.4079 7.131 10.1308-.8827 4.7275-5.4496 7.8272-10.1688 6.9022-4.7146-.9243-7.6858-5.6479-6.7829-10.3671.4416-2.3093-1.0719-4.5394-3.3812-4.9813l-2.2073-.4223c-5.91786-1.1324-10.03453-6.7666-8.97415-12.69781z" fill="#fff" fill-rule="evenodd"/></mask><mask id="b" height="13" maskUnits="userSpaceOnUse" width="13" x="0" y="25"><path clip-rule="evenodd" d="m1.77731 27.2778c-2.369748 2.3694-2.369748 6.2114 0 8.5808 2.36903 2.3694 6.21101 2.3694 8.58079 0 2.369-2.3694 2.369-6.2114 0-8.5808-2.36978-2.3694-6.21176-2.3694-8.58079 0z" fill="#fff" fill-rule="evenodd"/></mask><g mask="url(#a)"><path d="m-.247437 39h42.000037v-39.00003052h-42.000037z" fill="#725dff"/></g><g mask="url(#b)"><path d="m1.77731 27.2778c-2.369748 2.3694-2.369748 6.2114 0 8.5808 2.36903 2.3694 6.21101 2.3694 8.58079 0 2.369-2.3694 2.369-6.2114 0-8.5808-2.36978-2.3694-6.21176-2.3694-8.58079 0z" fill="#725dff"/></g><path clip-rule="evenodd" d="m72.064 22.368c-.5387.3467-1.16.52-1.864.52-.6827 0-1.2747-.1627-1.776-.488l-.161-.1135c-.2581-.1975-.4652-.437-.6212-.7185l-.0508-.099.001 1.307h-2v-11.776h2l-.001 4.938.0508-.0989c.1872-.3318.448-.6115.7822-.8391.5013-.3413 1.0933-.512 1.776-.512.7147 0 1.3387.1707 1.872.512s.9547.8267 1.264 1.456.464 1.3653.464 2.208-.1547 1.584-.464 2.224-.7333 1.1333-1.272 1.48zm-17.712.032c-.5067.3253-1.1013.488-1.784.488-.704 0-1.328-.168-1.872-.504s-.9627-.816-1.256-1.44-.44-1.3573-.44-2.2c0-.8533.1493-1.5973.448-2.232s.7173-1.1307 1.256-1.488 1.16-.536 1.864-.536c.6827 0 1.2773.168 1.784.504l.1629.1168c.2614.2028.4726.446.6335.7294l.0426.0838.001-1.226h1.968v8.08h-1.968l-.001-1.29-.0426.082c-.1931.3378-.4586.6151-.7964.832zm-2.808-1.728c.3733.4533.896.68 1.568.68.6613 0 1.1733-.2293 1.536-.688s.544-1.1093.544-1.952c0-.864-.1813-1.5227-.544-1.976s-.8747-.68-1.536-.68c-.672 0-1.1947.2347-1.568.704s-.56 1.1307-.56 1.984c0 .832.1867 1.4747.56 1.928zm9.776 2.104v-4.368c0-.4053.0773-.7707.232-1.096s.384-.584.688-.776.696-.288 1.176-.288c.3733 0 .7253.0693 1.056.208l.032-1.824c-.1067-.0427-.2293-.0747-.368-.096s-.288-.032-.448-.032c-.6187 0-1.1733.1813-1.664.544-.3271.2418-.576.5618-.7467.96l-.0443.115-.153-1.427h-1.888c.0533.3733.088.7547.104 1.144s.024.7707.024 1.144v5.792zm8.368-1.424c-.6827 0-1.2027-.2293-1.56-.688s-.536-1.1147-.536-1.968c0-.8427.1787-1.4933.536-1.952s.8773-.688 1.56-.688c.6613 0 1.1733.2267 1.536.68s.544 1.096.544 1.928c0 .8533-.1813 1.5147-.544 1.984s-.8747.704-1.536.704zm11.352 1.272c-.56.176-1.128.264-1.704.264-.8747 0-1.6293-.1653-2.264-.496s-1.1227-.8107-1.464-1.44-.512-1.376-.512-2.24c0-.832.1653-1.5653.496-2.2s.7893-1.1307 1.376-1.488 1.264-.536 2.032-.536c.7467 0 1.3867.1627 1.92.488s.9467.792 1.24 1.4.44 1.328.44 2.16v.304h-5.562l.0136.2105c.0587.7101.2495 1.2506.5724 1.6215.3947.4533.992.68 1.792.68.4373 0 .8667-.072 1.288-.216s.8133-.3547 1.176-.632l.576 1.376c-.384.32-.856.568-1.416.744zm-.191-4.856h-3.756l.0235-.1338c.0704-.3434.1848-.6382.3432-.8844l.1003-.1418c.352-.4533.848-.68 1.488-.68.5973 0 1.0533.2027 1.368.608.2098.2702.3473.6234.4124 1.0596zm4.911 8.192c-.5067.2133-1.0587.3627-1.656.448l-.448-1.536c.5013-.1067.9173-.232 1.248-.376s.6053-.328.824-.552l.127-.1421c.1639-.1997.3055-.4403.425-.7219l.265-.604-3.369-7.78h2.096l2.322 5.783 2.366-5.783h1.984l-3.744 8.624c-.3093.704-.6667 1.2667-1.072 1.688s-.8613.7387-1.368.952z" fill="#21242a" fill-rule="evenodd"/></svg>